<svg width="24" height="24" viewBox="0 0 24 24" fill="none" xmlns="http://www.w3.org/2000/svg">
<path d="M18.2334 1.6416C20.1173 1.64163 21.6249 3.14934 21.625 5.0332V12.6416H21.9004C22.5741 12.6418 23.0916 13.1594 23.0918 13.833C23.0918 14.5069 22.5742 15.0252 21.9004 15.0254H21.54L20.5586 18.916V18.917C20.2742 19.9833 19.3257 20.7801 18.21 20.8789L18.6084 21.6758L18.6123 21.6826H18.6113C18.6565 21.7954 18.6563 21.9179 18.623 22.0234C18.5928 22.1191 18.5319 22.2058 18.4453 22.2588C18.4231 22.2949 18.3964 22.326 18.3545 22.3428C18.3117 22.3599 18.2641 22.3584 18.2334 22.3584C18.1441 22.3584 18.0619 22.3358 17.9902 22.2881C17.9192 22.2407 17.8634 22.172 17.8213 22.0879L17.2236 20.8916H7.16113L6.54492 22.124L6.54004 22.1348L6.53906 22.1338C6.45171 22.2648 6.31579 22.3582 6.13379 22.3584C6.11599 22.3584 6.08088 22.3585 6.04492 22.3525C6.0149 22.3475 5.97286 22.3351 5.93652 22.3057C5.71262 22.2046 5.62942 21.9348 5.75781 21.7129L6.16797 20.8916H6.02344C4.80776 20.8916 3.74514 20.0562 3.44141 18.8799V18.8789L2.46973 15.0254H2.09961C1.42583 15.0252 0.908203 14.5069 0.908203 13.833C0.908378 13.1718 1.40704 12.6614 2.0625 12.6426C2.26367 11.7918 3.01499 11.1748 3.93359 11.1748C4.25227 11.1749 4.56601 11.2734 4.84668 11.4043C5.17002 10.8298 5.79951 10.4414 6.5 10.4414C7.10393 10.4414 7.62923 10.7375 8.00781 11.1758C8.9073 11.1939 9.63838 11.8041 9.83691 12.6416H20.708V5.0332C20.7079 3.65392 19.6127 2.55862 18.2334 2.55859C17.5725 2.55859 17.0785 2.81489 16.7354 3.20898C16.4062 3.58705 16.213 4.0964 16.1494 4.63574C16.987 4.84575 17.5918 5.59059 17.5918 6.5C17.5918 6.63083 17.5475 6.74739 17.4639 6.83105C17.3803 6.91447 17.2643 6.95791 17.1338 6.95801H14.2002C14.0694 6.95801 13.9528 6.91468 13.8691 6.83105C13.7855 6.74739 13.7412 6.63083 13.7412 6.5C13.7412 5.57483 14.3674 4.81961 15.2275 4.625C15.386 2.85876 16.5761 1.6416 18.2334 1.6416ZM4.35254 18.6504H4.35156C4.56145 19.4183 5.25988 19.9744 6.05957 19.9746H18.0137C18.8126 19.9745 19.509 19.4191 19.7197 18.6523L20.5742 15.0254H3.42773L4.35254 18.6504ZM2.09961 13.5586C2.01063 13.5587 1.94401 13.5882 1.89941 13.6328C1.85482 13.6774 1.82528 13.744 1.8252 13.833C1.8252 13.9222 1.85476 13.9895 1.89941 14.0342C1.94401 14.0787 2.0107 14.1083 2.09961 14.1084H21.9004C21.9893 14.1083 22.056 14.0787 22.1006 14.0342C22.1452 13.9895 22.1748 13.9222 22.1748 13.833C22.1747 13.744 22.1452 13.6774 22.1006 13.6328C22.056 13.5882 21.9894 13.5587 21.9004 13.5586H2.09961ZM6.53711 11.3584C6.03629 11.3584 5.62892 11.7255 5.52637 12.2383L5.52539 12.2422C5.48425 12.4068 5.39427 12.5545 5.20215 12.6025C5.03734 12.6437 4.85214 12.6086 4.74805 12.4678C4.50427 12.2241 4.2333 12.0919 3.93359 12.0918C3.54182 12.0918 3.20722 12.3077 3.04492 12.6416H8.8916C8.72931 12.3078 8.39465 12.0918 8.00293 12.0918H7.89648C7.71463 12.1278 7.49891 12.0388 7.4082 11.8574C7.2433 11.5278 6.91241 11.3585 6.53711 11.3584ZM15.7031 5.49219C15.3084 5.49227 14.9466 5.7103 14.7793 6.04199H16.5918C16.4296 5.70795 16.095 5.49219 15.7031 5.49219Z" fill="#54565C" stroke="#54565C" stroke-width="0.183333"/>
<path d="M14.1992 10.6555C14.323 10.6555 14.4316 10.6966 14.5088 10.7737C14.586 10.8508 14.627 10.9594 14.627 11.0833V11.2668C14.6269 11.3905 14.5858 11.4983 14.5088 11.5754C14.4316 11.6526 14.3231 11.6946 14.1992 11.6946C14.0755 11.6945 13.9677 11.6525 13.8906 11.5754C13.8136 11.4983 13.7716 11.3906 13.7715 11.2668V11.0833C13.7715 10.9594 13.8135 10.8508 13.8906 10.7737C13.9677 10.6968 14.0756 10.6556 14.1992 10.6555ZM15.666 10.6555C15.7898 10.6555 15.8984 10.6966 15.9756 10.7737C16.0528 10.8508 16.0938 10.9594 16.0938 11.0833V11.2668C16.0937 11.3905 16.0526 11.4984 15.9756 11.5754C15.8984 11.6526 15.7899 11.6946 15.666 11.6946C15.5423 11.6945 15.4345 11.6525 15.3574 11.5754C15.2803 11.4983 15.2384 11.3906 15.2383 11.2668V11.0833C15.2383 10.9594 15.2803 10.8508 15.3574 10.7737C15.4345 10.6968 15.5424 10.6556 15.666 10.6555ZM17.1328 10.6555C17.2567 10.6555 17.3652 10.6965 17.4424 10.7737C17.5195 10.8508 17.5605 10.9594 17.5605 11.0833V11.2668C17.5605 11.3905 17.5193 11.4984 17.4424 11.5754C17.3652 11.6526 17.2567 11.6946 17.1328 11.6946C17.009 11.6945 16.9013 11.6525 16.8242 11.5754C16.7471 11.4983 16.7052 11.3906 16.7051 11.2668V11.0833C16.7051 10.9594 16.7471 10.8508 16.8242 10.7737C16.9013 10.6968 17.0092 10.6556 17.1328 10.6555ZM14.1992 9.00513C14.3231 9.00513 14.4316 9.0471 14.5088 9.12427C14.5858 9.20136 14.6269 9.30917 14.627 9.43286V9.83618C14.627 10.0492 14.4569 10.2639 14.1992 10.2639C14.0756 10.2638 13.9677 10.2228 13.8906 10.1458C13.8135 10.0686 13.7715 9.96005 13.7715 9.83618V9.43286C13.7716 9.30914 13.8136 9.20136 13.8906 9.12427C13.9677 9.04719 14.0755 9.00523 14.1992 9.00513ZM15.666 9.00513C15.7899 9.00513 15.8984 9.0471 15.9756 9.12427C16.0526 9.20136 16.0937 9.3092 16.0938 9.43286V9.83618C16.0938 10.0492 15.9237 10.2639 15.666 10.2639C15.5423 10.2638 15.4345 10.2227 15.3574 10.1458C15.2803 10.0686 15.2383 9.96007 15.2383 9.83618V9.43286C15.2383 9.3091 15.2803 9.20137 15.3574 9.12427C15.4345 9.04716 15.5423 9.00519 15.666 9.00513ZM17.1328 9.00513C17.2567 9.00513 17.3652 9.0471 17.4424 9.12427C17.5193 9.20136 17.5605 9.30923 17.5605 9.43286V9.83618C17.5605 10.0493 17.3905 10.2639 17.1328 10.2639C17.0091 10.2639 16.9013 10.2227 16.8242 10.1458C16.7471 10.0686 16.7051 9.96007 16.7051 9.83618V9.43286C16.7051 9.3091 16.7471 9.20137 16.8242 9.12427C16.9013 9.04717 17.009 9.00517 17.1328 9.00513ZM14.1992 7.53833C14.3231 7.53833 14.4316 7.5803 14.5088 7.65747C14.5858 7.73454 14.6269 7.84239 14.627 7.96606V8.14966C14.627 8.27354 14.586 8.38206 14.5088 8.45923C14.4316 8.53632 14.323 8.57739 14.1992 8.57739C14.0756 8.57729 13.9677 8.5362 13.8906 8.45923C13.8135 8.38206 13.7715 8.27354 13.7715 8.14966V7.96606C13.7716 7.84236 13.8135 7.73455 13.8906 7.65747C13.9677 7.5804 14.0755 7.53843 14.1992 7.53833ZM15.666 7.53833C15.7899 7.53833 15.8984 7.5803 15.9756 7.65747C16.0526 7.73454 16.0937 7.84243 16.0938 7.96606V8.14966C16.0938 8.27354 16.0528 8.38206 15.9756 8.45923C15.8984 8.53636 15.7899 8.57739 15.666 8.57739C15.5424 8.57733 15.4345 8.53618 15.3574 8.45923C15.2803 8.38206 15.2383 8.27354 15.2383 8.14966V7.96606C15.2384 7.84236 15.2803 7.73455 15.3574 7.65747C15.4345 7.58041 15.5423 7.5384 15.666 7.53833ZM17.1328 7.53833C17.2567 7.53833 17.3652 7.5803 17.4424 7.65747C17.5193 7.73453 17.5604 7.84245 17.5605 7.96606V8.14966C17.5605 8.27354 17.5195 8.38206 17.4424 8.45923C17.3652 8.5364 17.2567 8.57739 17.1328 8.57739C17.0092 8.57735 16.9013 8.53616 16.8242 8.45923C16.747 8.38206 16.7051 8.27355 16.7051 8.14966V7.96606C16.7052 7.84236 16.7471 7.73455 16.8242 7.65747C16.9013 7.58042 17.0091 7.53837 17.1328 7.53833Z" fill="#54565C" stroke="#54565C" stroke-width="0.122222"/>
</svg>
