<svg width="24" height="24" viewBox="0 0 24 24" fill="none" xmlns="http://www.w3.org/2000/svg">
<path d="M23 17.7427H1" stroke="#54565C" stroke-width="1.43" stroke-linecap="round" stroke-linejoin="round"/>
<path d="M23 21.5929V16.0929C23 14.0187 23 12.9816 22.3556 12.3373C21.7112 11.6929 20.6742 11.6929 18.6 11.6929H5.4C3.32582 11.6929 2.28873 11.6929 1.64437 12.3373C1 12.9816 1 14.0187 1 16.0929V21.5929" stroke="#54565C" stroke-width="1.43" stroke-linecap="round" stroke-linejoin="round"/>
<path d="M16.3996 11.6931V10.1727C16.3996 9.61441 16.299 9.42763 15.7832 9.20763C14.709 8.74935 13.4052 8.39307 11.9996 8.39307C10.594 8.39307 9.29018 8.74935 8.21605 9.20763C7.7003 9.42763 7.59961 9.61441 7.59961 10.1727V11.6931" stroke="#54565C" stroke-width="1.43" stroke-linecap="round"/>
<path d="M20.8004 11.6926V6.58923C20.8004 5.82843 20.8004 5.44802 20.6126 5.08879C20.4247 4.72955 20.157 4.5436 19.6217 4.17172C17.4631 2.67236 14.8354 1.7926 12.0004 1.7926C9.16554 1.7926 6.53774 2.67236 4.37923 4.17172C3.84385 4.5436 3.57617 4.72955 3.38831 5.08879C3.20044 5.44802 3.20044 5.82843 3.20044 6.58923V11.6926" stroke="#54565C" stroke-width="1.43" stroke-linecap="round"/>
</svg>
