<svg width="24" height="24" viewBox="0 0 24 24" fill="none" xmlns="http://www.w3.org/2000/svg">
<path d="M4.3916 0.987061C4.45612 1.00365 4.51702 1.03303 4.57031 1.073C4.62356 1.113 4.66821 1.16315 4.70215 1.22046C4.73609 1.27778 4.75908 1.34105 4.76855 1.40698C4.77798 1.47296 4.77431 1.54066 4.75781 1.60522C4.74128 1.66976 4.7118 1.73061 4.67188 1.78394L4.01562 2.65894H15.0703L14.3828 1.79565C14.3414 1.74354 14.3104 1.68386 14.292 1.61987C14.2736 1.5557 14.2679 1.48797 14.2754 1.42163C14.2829 1.35546 14.3037 1.29143 14.3359 1.23315C14.3682 1.17485 14.4118 1.12334 14.4639 1.08179C14.5161 1.0402 14.5765 1.0094 14.6406 0.990967C14.7047 0.972573 14.7716 0.966878 14.8379 0.974365C14.9042 0.981894 14.9689 1.00257 15.0273 1.03491C15.0856 1.06724 15.1372 1.11071 15.1787 1.16284L16.5225 2.85034C16.5941 2.9403 16.6328 3.05176 16.6328 3.16675C16.6328 3.28172 16.594 3.39319 16.5225 3.48315L15.1787 5.17065C15.0947 5.27611 14.9719 5.34395 14.8379 5.35913C14.704 5.37424 14.5693 5.33565 14.4639 5.25171C14.3587 5.16778 14.2906 5.04559 14.2754 4.91187C14.2602 4.77805 14.299 4.64325 14.3828 4.53784L15.0693 3.67554H4.0166L4.67188 4.54956C4.75265 4.65738 4.78761 4.79314 4.76855 4.92651C4.74943 5.05988 4.6781 5.18063 4.57031 5.26147C4.4625 5.3423 4.32675 5.3762 4.19336 5.35718C4.0599 5.33811 3.93929 5.26679 3.8584 5.15894L2.59375 3.47144C2.52778 3.38345 2.49121 3.27671 2.49121 3.16675C2.49123 3.05679 2.52777 2.95003 2.59375 2.86206L3.8584 1.17456C3.89843 1.12118 3.94845 1.07575 4.00586 1.04175C4.0633 1.00774 4.12728 0.985759 4.19336 0.976318C4.25939 0.966905 4.32698 0.970506 4.3916 0.987061Z" fill="#54565C" stroke="#54565C" stroke-width="0.266667"/>
<path d="M15.8438 7.45996C16.078 7.45996 16.3031 7.55309 16.4688 7.71875C16.6344 7.88441 16.7275 8.10948 16.7275 8.34375V21C16.7275 21.2343 16.6344 21.4593 16.4688 21.625C16.3031 21.7907 16.078 21.8838 15.8438 21.8838H3.375C3.14073 21.8838 2.91566 21.7907 2.75 21.625C2.58434 21.4593 2.49121 21.2343 2.49121 21V8.34375C2.49121 8.10948 2.58434 7.88441 2.75 7.71875C2.91566 7.55309 3.14073 7.45996 3.375 7.45996H15.8438ZM3.50879 20.8662H15.71V8.47754H3.50879V20.8662Z" fill="#54565C" stroke="#54565C" stroke-width="0.266667"/>
<path d="M21.208 7.74146C21.323 7.74146 21.4344 7.78116 21.5244 7.85278L23.2119 9.19653C23.2641 9.23804 23.3075 9.28962 23.3398 9.3479C23.3722 9.40631 23.3929 9.47101 23.4004 9.53735C23.4079 9.6036 23.4022 9.67055 23.3838 9.73462C23.3654 9.79878 23.3346 9.85915 23.293 9.91138C23.2514 9.96345 23.1999 10.007 23.1416 10.0393C23.0833 10.0715 23.0193 10.0923 22.9531 10.0999C22.8868 10.1074 22.8191 10.1017 22.7549 10.0833C22.6909 10.0649 22.6312 10.0338 22.5791 9.99243L21.7168 9.30493V20.3577L22.5908 19.7034C22.6986 19.6226 22.8344 19.5876 22.9678 19.6067C23.101 19.6258 23.2209 19.6973 23.3018 19.8049C23.3826 19.9128 23.4175 20.0484 23.3984 20.1819C23.3794 20.3153 23.3081 20.436 23.2002 20.5168L21.5127 21.7815C21.4247 21.8474 21.318 21.8831 21.208 21.8831C21.098 21.8831 20.9913 21.8474 20.9033 21.7815L19.2158 20.5168C19.108 20.436 19.0366 20.3153 19.0176 20.1819C18.9985 20.0484 19.0334 19.9128 19.1143 19.8049C19.1951 19.6973 19.315 19.6258 19.4482 19.6067C19.5816 19.5876 19.7174 19.6226 19.8252 19.7034L20.6992 20.3577V9.30493L19.8369 9.99146C19.7847 10.033 19.7253 10.0648 19.6611 10.0833C19.597 10.1017 19.5292 10.1064 19.4629 10.0989C19.3968 10.0913 19.3326 10.0715 19.2744 10.0393C19.2161 10.007 19.1646 9.96344 19.123 9.91138C19.0391 9.806 19.0005 9.67121 19.0156 9.53735C19.0308 9.40339 19.0986 9.28053 19.2041 9.19653L20.8916 7.85278C20.9816 7.78115 21.093 7.74146 21.208 7.74146Z" fill="#54565C" stroke="#54565C" stroke-width="0.266667"/>
</svg>
