<svg width="24" height="24" viewBox="0 0 24 24" fill="none" xmlns="http://www.w3.org/2000/svg">
<path d="M5.11771 18.8823C4.83689 18.8823 4.56758 18.7708 4.36901 18.5722C4.17044 18.3737 4.05889 18.1043 4.05889 17.8235V15.8361C4.05896 15.7063 4.07497 15.5769 4.10653 15.451L4.34742 14.4869C4.39162 14.3095 4.46018 14.1436 4.54912 13.9919L3.9305 13.837C3.86203 13.8212 3.79741 13.7918 3.7404 13.7507C3.68339 13.7096 3.63514 13.6575 3.59847 13.5976C3.56179 13.5376 3.53742 13.471 3.52677 13.4015C3.51613 13.332 3.51943 13.2611 3.53648 13.1929C3.55352 13.1247 3.58398 13.0606 3.62606 13.0043C3.66815 12.948 3.72102 12.9007 3.7816 12.865C3.84218 12.8294 3.90925 12.8062 3.9789 12.7967C4.04855 12.7873 4.11938 12.7918 4.18727 12.81L5.18283 13.0588H5.80198L6.76683 10.3249C6.94909 9.80848 7.28705 9.36128 7.73412 9.04497C8.18119 8.72866 8.71536 8.55879 9.26301 8.55879H14.7371C15.2848 8.55879 15.819 8.72866 16.266 9.04497C16.7131 9.36128 17.0511 9.80848 17.2333 10.3249L18.1982 13.0588H18.8173L19.8126 12.81C19.8804 12.7921 19.9511 12.7878 20.0205 12.7974C20.09 12.807 20.1568 12.8304 20.2172 12.866C20.2775 12.9017 20.3302 12.949 20.3721 13.0051C20.4141 13.0613 20.4444 13.1253 20.4615 13.1933C20.4785 13.2613 20.4818 13.332 20.4713 13.4013C20.4608 13.4706 20.4366 13.5372 20.4001 13.5971C20.3637 13.657 20.3157 13.709 20.259 13.7502C20.2022 13.7914 20.1379 13.8209 20.0697 13.837L19.451 13.9919C19.54 14.1436 19.6085 14.3095 19.6527 14.4869L19.8936 15.451C19.9252 15.5769 19.9412 15.7063 19.9413 15.8361V17.8235C19.9413 18.1043 19.8297 18.3737 19.6312 18.5722C19.4326 18.7708 19.1633 18.8823 18.8824 18.8823V19.9412C18.8824 20.222 18.7709 20.4913 18.5723 20.6899C18.3738 20.8884 18.1044 21 17.8236 21H15.706C15.4252 21 15.1558 20.8884 14.9573 20.6899C14.7587 20.4913 14.6471 20.222 14.6471 19.9412V18.8823H9.35301V19.9412C9.35301 20.222 9.24146 20.4913 9.04289 20.6899C8.84432 20.8884 8.57501 21 8.29419 21H6.17654C5.89572 21 5.6264 20.8884 5.42783 20.6899C5.22927 20.4913 5.11771 20.222 5.11771 19.9412V18.8823ZM17.0753 13.0588L16.2349 10.6772C16.1255 10.3674 15.9227 10.0991 15.6545 9.9093C15.3862 9.71952 15.0657 9.61762 14.7371 9.61762H9.26301C8.93443 9.61762 8.61393 9.71952 8.34569 9.9093C8.07745 10.0991 7.87467 10.3674 7.76531 10.6772L6.92486 13.0588H17.0753ZM15.5207 17.8235H18.8824V15.8361C18.8824 15.7928 18.8771 15.7497 18.8666 15.7077L18.6257 14.7439C18.581 14.565 18.4778 14.4062 18.3324 14.2927C18.1871 14.1793 18.008 14.1176 17.8236 14.1176H6.17654C5.99215 14.1176 5.81305 14.1793 5.66772 14.2927C5.52239 14.4062 5.41917 14.565 5.37448 14.7439L5.13359 15.7077C5.12307 15.7497 5.11774 15.7928 5.11771 15.8361V17.8235H8.47948L9.39854 15.7556C9.44013 15.662 9.50798 15.5825 9.59387 15.5267C9.67976 15.4709 9.78 15.4411 9.88243 15.4412H14.1177C14.2202 15.4411 14.3204 15.4709 14.4063 15.5267C14.4922 15.5825 14.56 15.662 14.6016 15.7556L15.5207 17.8235ZM17.8236 18.8823H15.706V19.9412H17.8236V18.8823ZM14.3618 17.8235L13.7736 16.5H10.2265L9.63837 17.8235H14.3618ZM6.17654 18.8823V19.9412H8.29419V18.8823H6.17654ZM3.74177 7.7202C3.61349 7.77454 3.46896 7.77613 3.33952 7.72462C3.21008 7.67311 3.10616 7.57265 3.0503 7.44503C2.99443 7.31741 2.99111 7.17292 3.04107 7.04287C3.09103 6.91282 3.19024 6.80771 3.31718 6.75032L11.7878 3.04443C11.8547 3.01513 11.927 3 12.0001 3C12.0732 3 12.1454 3.01513 12.2124 3.04443L20.683 6.75032C20.8099 6.80771 20.9091 6.91282 20.9591 7.04287C21.009 7.17292 21.0057 7.31741 20.9499 7.44503C20.894 7.57265 20.7901 7.67311 20.6606 7.72462C20.5312 7.77613 20.3867 7.77454 20.2584 7.7202L12.0001 4.10723L3.74177 7.7202ZM17.2942 16.5C17.0836 16.5 16.8816 16.4163 16.7327 16.2674C16.5838 16.1185 16.5001 15.9165 16.5001 15.7059C16.5001 15.4953 16.5838 15.2933 16.7327 15.1443C16.8816 14.9954 17.0836 14.9117 17.2942 14.9117C17.5048 14.9117 17.7068 14.9954 17.8557 15.1443C18.0047 15.2933 18.0883 15.4953 18.0883 15.7059C18.0883 15.9165 18.0047 16.1185 17.8557 16.2674C17.7068 16.4163 17.5048 16.5 17.2942 16.5ZM6.70595 16.5C6.49534 16.5 6.29335 16.4163 6.14442 16.2674C5.9955 16.1185 5.91183 15.9165 5.91183 15.7059C5.91183 15.4953 5.9955 15.2933 6.14442 15.1443C6.29335 14.9954 6.49534 14.9117 6.70595 14.9117C6.91656 14.9117 7.11855 14.9954 7.26748 15.1443C7.4164 15.2933 7.50007 15.4953 7.50007 15.7059C7.50007 15.9165 7.4164 16.1185 7.26748 16.2674C7.11855 16.4163 6.91656 16.5 6.70595 16.5Z" fill="#54565C"/>
</svg>
