<svg width="24" height="24" viewBox="0 0 24 24" fill="none" xmlns="http://www.w3.org/2000/svg">
<path d="M1.5 16.4326C1.6632 16.4315 1.82622 16.4436 1.9875 16.4686C2.0005 16.4726 2.014 16.4741 2.0275 16.4766C2.37217 16.5462 2.70016 16.6817 2.9935 16.8756C3.58694 17.2692 4.28652 17.4721 4.9985 17.4571C5.70279 17.4738 6.39538 17.2749 6.9835 16.8871C6.99027 16.8836 6.99694 16.8799 7.0035 16.8761C7.44209 16.5748 7.96456 16.4196 8.4965 16.4326C9.02978 16.4206 9.55349 16.5755 9.9945 16.8756C10.5859 17.2695 11.284 17.4725 11.9945 17.4571C12.7064 17.4707 13.4056 17.2681 14 16.8761C14.4386 16.5748 14.9611 16.4196 15.493 16.4326C16.0296 16.4211 16.5563 16.5778 16.9995 16.8806C17.5914 17.2705 18.2878 17.4715 18.9965 17.4571C19.4741 17.4676 19.9488 17.3791 20.3905 17.1971C20.6009 17.1041 20.8047 16.9968 21.0005 16.8761C21.4439 16.5799 21.9668 16.4252 22.5 16.4326C22.6326 16.4326 22.7598 16.3799 22.8536 16.2861C22.9473 16.1923 23 16.0652 23 15.9326C23 15.8 22.9473 15.6728 22.8536 15.579C22.7598 15.4852 22.6326 15.4326 22.5 15.4326C22.3055 15.4302 22.1112 15.4439 21.919 15.4736C21.4109 15.5494 20.925 15.7337 20.4945 16.0141C20.3355 16.1126 20.1701 16.2004 19.9995 16.2771C19.6815 16.4068 19.3398 16.4682 18.9965 16.4571C18.4584 16.4705 17.9299 16.313 17.487 16.0071C17.0675 15.7362 16.5961 15.5557 16.103 15.4771L11.983 9.46056L17.2625 6.81806C17.4947 6.70206 17.6987 6.5365 17.8599 6.33305C18.0212 6.1296 18.1358 5.89323 18.1957 5.64063C18.2556 5.38804 18.2593 5.12537 18.2066 4.87118C18.1538 4.617 18.0459 4.37748 17.8905 4.16956C17.6413 3.84804 17.2907 3.62018 16.8957 3.52297C16.5007 3.42576 16.0845 3.46491 15.7145 3.63406L8.4205 7.08656C8.16701 7.20667 7.94107 7.37786 7.75686 7.5894C7.57264 7.80094 7.43413 8.04826 7.35 8.31586C7.26587 8.58345 7.23795 8.86554 7.26798 9.14444C7.298 9.42333 7.38534 9.69301 7.5245 9.93656L8.494 11.6606L2.0265 15.4671C1.8519 15.4445 1.67605 15.4332 1.5 15.4331C1.36739 15.4331 1.24021 15.4857 1.14645 15.5795C1.05268 15.6733 1 15.8005 1 15.9331C1 16.0657 1.05268 16.1928 1.14645 16.2866C1.24021 16.3804 1.36739 16.4326 1.5 16.4326ZM9.0035 12.5206C9.23249 12.3854 9.39896 12.1654 9.46682 11.9083C9.53468 11.6511 9.49845 11.3776 9.366 11.1471L8.392 9.43956C8.32141 9.31565 8.27716 9.17849 8.26203 9.03668C8.24689 8.89487 8.2612 8.75147 8.30405 8.61545C8.34691 8.47942 8.41738 8.35371 8.51107 8.24619C8.60475 8.13866 8.71963 8.05164 8.8485 7.99056L16.1415 4.53856C16.2729 4.47496 16.4196 4.4501 16.5646 4.46691C16.7096 4.48372 16.8468 4.5415 16.9601 4.63348C17.0735 4.72545 17.1582 4.84782 17.2045 4.98624C17.2508 5.12467 17.2567 5.27341 17.2215 5.41506C17.1961 5.52456 17.1465 5.627 17.0765 5.71489C17.0064 5.80278 16.9176 5.8739 16.8165 5.92306L11.539 8.56456C11.4095 8.62803 11.2951 8.71861 11.2037 8.83015C11.1122 8.9417 11.0458 9.07161 11.009 9.21106C10.9718 9.35208 10.9653 9.49945 10.9901 9.64318C11.0149 9.7869 11.0703 9.92362 11.1525 10.0441L14.8885 15.4766C14.3906 15.5551 13.915 15.7383 13.493 16.0141C13.053 16.3162 12.5286 16.4713 11.995 16.4571C11.4585 16.4698 10.9318 16.3123 10.4905 16.0071C9.89919 15.6184 9.20396 15.4181 8.4965 15.4326C7.79025 15.4172 7.09614 15.6178 6.507 16.0076L6.484 16.0206C6.04747 16.3195 5.52737 16.4724 4.9985 16.4571C4.46441 16.4699 3.93982 16.3144 3.499 16.0126C3.429 15.9716 3.356 15.9301 3.282 15.8886L9.0035 12.5206ZM22.5 18.5061C21.7887 18.4915 21.0899 18.694 20.4965 19.0866C20.0502 19.3763 19.5296 19.5304 18.9975 19.5304C18.4654 19.5304 17.9448 19.3763 17.4985 19.0866C16.8992 18.7073 16.2045 18.506 15.4952 18.506C14.786 18.506 14.0913 18.7073 13.492 19.0866C13.0518 19.388 12.5279 19.5433 11.9945 19.5306C11.4616 19.5433 10.9382 19.388 10.4985 19.0866C9.90607 18.694 9.20802 18.4915 8.4975 18.5061C7.7865 18.4914 7.08795 18.6939 6.495 19.0866C6.05497 19.388 5.53123 19.5434 4.998 19.5306C4.46494 19.5432 3.94139 19.3879 3.5015 19.0866C2.90887 18.6941 2.21067 18.4916 1.5 18.5061C1.36739 18.5061 1.24021 18.5587 1.14645 18.6525C1.05268 18.7463 1 18.8735 1 19.0061C1 19.1387 1.05268 19.2658 1.14645 19.3596C1.24021 19.4534 1.36739 19.5061 1.5 19.5061C2.03307 19.4933 2.55662 19.6487 2.9965 19.9501C3.58928 20.3426 4.28766 20.5451 4.9985 20.5306C5.70916 20.545 6.40733 20.3425 7 19.9501C7.44003 19.6486 7.96377 19.4933 8.497 19.5061C9.02975 19.4934 9.55296 19.6488 9.9925 19.9501C10.5851 20.3427 11.2833 20.5452 11.994 20.5306C12.7052 20.5452 13.4039 20.3427 13.997 19.9501C14.4429 19.6604 14.9633 19.5062 15.495 19.5062C16.0267 19.5062 16.5471 19.6604 16.993 19.9501C17.5925 20.3293 18.2873 20.5307 18.9967 20.5307C19.7062 20.5307 20.401 20.3293 21.0005 19.9501C21.4414 19.6485 21.966 19.4932 22.5 19.5061C22.6326 19.5061 22.7598 19.4534 22.8536 19.3596C22.9473 19.2658 23 19.1387 23 19.0061C23 18.8735 22.9473 18.7463 22.8536 18.6525C22.7598 18.5587 22.6326 18.5061 22.5 18.5061Z" fill="#54565C"/>
<path d="M15.3408 11.3235C15.3409 12.0301 15.5505 12.7209 15.9432 13.3084C16.3358 13.8959 16.8939 14.3537 17.5467 14.6241C18.1996 14.8945 18.918 14.9652 19.611 14.8273C20.304 14.6894 20.9406 14.3492 21.4403 13.8495C21.94 13.3498 22.2803 12.7132 22.4181 12.0202C22.556 11.3271 22.4853 10.6088 22.2149 9.9559C21.9446 9.30304 21.4867 8.74501 20.8992 8.35237C20.3117 7.95972 19.621 7.7501 18.9143 7.75C17.9669 7.75106 17.0587 8.12791 16.3888 8.79785C15.719 9.4678 15.3417 10.3761 15.3408 11.3235ZM18.9143 8.75C19.4232 8.75 19.9207 8.9009 20.3438 9.18363C20.7669 9.46635 21.0967 9.8682 21.2915 10.3384C21.4862 10.8085 21.5372 11.3259 21.4379 11.825C21.3386 12.3241 21.0935 12.7825 20.7337 13.1424C20.3739 13.5022 19.9154 13.7473 19.4163 13.8466C18.9172 13.9458 18.3998 13.8949 17.9297 13.7001C17.4595 13.5054 17.0577 13.1756 16.7749 12.7525C16.4922 12.3294 16.3413 11.8319 16.3413 11.323C16.3421 10.6408 16.6135 9.98685 17.0958 9.50449C17.5782 9.02213 18.2322 8.75079 18.9143 8.75Z" fill="#54565C"/>
</svg>
