<svg width="25" height="25" viewBox="0 0 25 25" fill="none" xmlns="http://www.w3.org/2000/svg">
<g clip-path="url(#clip0_111_2542)">
<path d="M12.5557 0.0769043C5.9283 0.0769043 0.555664 5.44954 0.555664 12.0769C0.555664 17.7044 4.43022 22.4267 9.65694 23.7236V15.7441H7.18254V12.0769H9.65694V10.4967C9.65694 6.41242 11.5054 4.5193 15.5153 4.5193C16.2757 4.5193 17.5875 4.66858 18.1241 4.81738V8.14138C17.8409 8.11162 17.3489 8.09674 16.7379 8.09674C14.7704 8.09674 14.0101 8.84218 14.0101 10.7799V12.0769H17.9297L17.2563 15.7441H14.0101V23.9891C19.952 23.2715 24.5561 18.2123 24.5561 12.0769C24.5557 5.44954 19.183 0.0769043 12.5557 0.0769043Z" fill="#54565C"/>
</g>
<defs>
<clipPath id="clip0_111_2542">
<rect width="24" height="24" fill="white" transform="translate(0.555664 0.0769043)"/>
</clipPath>
</defs>
</svg>
