<svg width="25" height="25" viewBox="0 0 25 25" fill="none" xmlns="http://www.w3.org/2000/svg">
<g clip-path="url(#clip0_111_2541)">
<path d="M12.5557 2.23784C15.7619 2.23784 16.1416 2.2519 17.4025 2.30815C18.5744 2.35972 19.2072 2.55659 19.6291 2.72065C20.1869 2.93628 20.59 3.19878 21.0072 3.61597C21.4291 4.03784 21.6869 4.43628 21.9025 4.99409C22.0666 5.41597 22.2635 6.05347 22.315 7.22065C22.3713 8.48628 22.3854 8.86597 22.3854 12.0675C22.3854 15.2738 22.3713 15.6535 22.315 16.9144C22.2635 18.0863 22.0666 18.7191 21.9025 19.141C21.6869 19.6988 21.4244 20.1019 21.0072 20.5191C20.5854 20.941 20.1869 21.1988 19.6291 21.4144C19.2072 21.5785 18.5697 21.7753 17.4025 21.8269C16.1369 21.8832 15.7572 21.8972 12.5557 21.8972C9.34941 21.8972 8.96973 21.8832 7.70879 21.8269C6.53691 21.7753 5.9041 21.5785 5.48223 21.4144C4.92441 21.1988 4.52129 20.9363 4.1041 20.5191C3.68223 20.0972 3.42441 19.6988 3.20879 19.141C3.04473 18.7191 2.84785 18.0816 2.79629 16.9144C2.74004 15.6488 2.72598 15.2691 2.72598 12.0675C2.72598 8.86128 2.74004 8.48159 2.79629 7.22065C2.84785 6.04878 3.04473 5.41597 3.20879 4.99409C3.42441 4.43628 3.68691 4.03315 4.1041 3.61597C4.52598 3.19409 4.92441 2.93628 5.48223 2.72065C5.9041 2.55659 6.5416 2.35972 7.70879 2.30815C8.96973 2.2519 9.34941 2.23784 12.5557 2.23784ZM12.5557 0.0769043C9.29785 0.0769043 8.89004 0.0909668 7.61035 0.147217C6.33535 0.203467 5.45879 0.409717 4.69941 0.705029C3.90723 1.0144 3.23691 1.42222 2.57129 2.09253C1.90098 2.75815 1.49316 3.42847 1.18379 4.21597C0.888477 4.98003 0.682227 5.8519 0.625977 7.1269C0.569727 8.41128 0.555664 8.81909 0.555664 12.0769C0.555664 15.3347 0.569727 15.7425 0.625977 17.0222C0.682227 18.2972 0.888477 19.1738 1.18379 19.9332C1.49316 20.7253 1.90098 21.3957 2.57129 22.0613C3.23691 22.7269 3.90723 23.1394 4.69473 23.4441C5.45879 23.7394 6.33066 23.9457 7.60566 24.0019C8.88535 24.0582 9.29316 24.0722 12.551 24.0722C15.8088 24.0722 16.2166 24.0582 17.4963 24.0019C18.7713 23.9457 19.6479 23.7394 20.4072 23.4441C21.1947 23.1394 21.865 22.7269 22.5307 22.0613C23.1963 21.3957 23.6088 20.7253 23.9135 19.9378C24.2088 19.1738 24.415 18.3019 24.4713 17.0269C24.5275 15.7472 24.5416 15.3394 24.5416 12.0816C24.5416 8.82378 24.5275 8.41597 24.4713 7.13628C24.415 5.86128 24.2088 4.98472 23.9135 4.22534C23.6182 3.42847 23.2104 2.75815 22.54 2.09253C21.8744 1.4269 21.2041 1.0144 20.4166 0.709717C19.6525 0.414404 18.7807 0.208154 17.5057 0.151904C16.2213 0.0909668 15.8135 0.0769043 12.5557 0.0769043Z" fill="#54565C"/>
<path d="M12.5557 5.91284C9.15254 5.91284 6.3916 8.67378 6.3916 12.0769C6.3916 15.48 9.15254 18.241 12.5557 18.241C15.9588 18.241 18.7197 15.48 18.7197 12.0769C18.7197 8.67378 15.9588 5.91284 12.5557 5.91284ZM12.5557 16.0753C10.3479 16.0753 8.55723 14.2847 8.55723 12.0769C8.55723 9.86909 10.3479 8.07847 12.5557 8.07847C14.7635 8.07847 16.5541 9.86909 16.5541 12.0769C16.5541 14.2847 14.7635 16.0753 12.5557 16.0753Z" fill="#54565C"/>
<path d="M20.4025 5.66904C20.4025 6.46592 19.7557 7.10811 18.9635 7.10811C18.1666 7.10811 17.5244 6.46123 17.5244 5.66904C17.5244 4.87217 18.1713 4.22998 18.9635 4.22998C19.7557 4.22998 20.4025 4.87686 20.4025 5.66904Z" fill="#54565C"/>
</g>
<defs>
<clipPath id="clip0_111_2541">
<rect width="24" height="24" fill="white" transform="translate(0.555664 0.0769043)"/>
</clipPath>
</defs>
</svg>
