<svg width="25" height="25" viewBox="0 0 25 25" fill="none" xmlns="http://www.w3.org/2000/svg">
<g clip-path="url(#clip0_111_2543)">
<path d="M22.7791 0.0769043H2.32754C1.34785 0.0769043 0.555664 0.850342 0.555664 1.80659V22.3425C0.555664 23.2988 1.34785 24.0769 2.32754 24.0769H22.7791C23.7588 24.0769 24.5557 23.2988 24.5557 22.3472V1.80659C24.5557 0.850342 23.7588 0.0769043 22.7791 0.0769043ZM7.67598 20.5285H4.11348V9.07222H7.67598V20.5285ZM5.89473 7.51128C4.75098 7.51128 3.82754 6.58784 3.82754 5.44878C3.82754 4.30972 4.75098 3.38628 5.89473 3.38628C7.03379 3.38628 7.95723 4.30972 7.95723 5.44878C7.95723 6.58315 7.03379 7.51128 5.89473 7.51128ZM21.0072 20.5285H17.4494V14.9597C17.4494 13.6332 17.426 11.9222 15.5979 11.9222C13.7463 11.9222 13.465 13.3707 13.465 14.866V20.5285H9.91191V9.07222H13.3244V10.6378H13.3713C13.8447 9.73784 15.0072 8.78628 16.7369 8.78628C20.3416 8.78628 21.0072 11.1582 21.0072 14.2425V20.5285Z" fill="#54565C"/>
</g>
<defs>
<clipPath id="clip0_111_2543">
<rect width="24" height="24" fill="white" transform="translate(0.555664 0.0769043)"/>
</clipPath>
</defs>
</svg>
