<svg width="64" height="51" viewBox="0 0 64 51" fill="none" xmlns="http://www.w3.org/2000/svg">
<path d="M17.9803 29.2803C18.5991 28.9231 19.3616 28.923 19.9803 29.2803L30.2635 35.2178C30.5965 35.4103 30.5965 35.8905 30.2635 36.083L6.00961 50.0869C5.78509 50.2165 5.49801 50.1529 5.35238 49.9385C3.25461 46.8451 1.68425 43.3645 0.770353 39.627C0.718119 39.4133 0.814376 39.1912 1.00473 39.0811L17.9803 29.2803ZM31.8553 0C49.5284 0 63.8553 14.3269 63.8553 32C63.8553 35.9142 63.1532 39.6643 61.867 43.1309C61.6567 43.6978 60.9845 43.9254 60.4608 43.623L46.7069 35.6816L46.6512 35.6504L46.7069 35.6191V28C46.7069 26.3433 45.3635 25.0002 43.7069 25C42.05 25 40.7069 26.3431 40.7069 28V32.2178L38.8329 31.1357L26.7997 24.1885L20.9803 20.8291C19.7427 20.1146 18.2179 20.1146 16.9803 20.8291L11.161 24.1885L1.45297 29.793C0.770931 30.1867 -0.0706787 29.6735 0.00472825 28.8896C1.56874 12.6763 15.2318 0.00016101 31.8553 0Z" fill="#0041D9"/>
</svg>
